<svg width="457" height="79" viewBox="0 0 457 79" fill="none" xmlns="http://www.w3.org/2000/svg">
<path d="M16.32 5.40002H2.72C1.21779 5.40002 0 6.61781 0 8.12002V21.72C0 23.2222 1.21779 24.44 2.72 24.44H16.32C17.8222 24.44 19.04 23.2222 19.04 21.72V8.12002C19.04 6.61781 17.8222 5.40002 16.32 5.40002Z" fill="white"/>
<path d="M40.8 5.40002H27.2C25.6978 5.40002 24.48 6.61781 24.48 8.12002V21.72C24.48 23.2222 25.6978 24.44 27.2 24.44H40.8C42.3022 24.44 43.52 23.2222 43.52 21.72V8.12002C43.52 6.61781 42.3022 5.40002 40.8 5.40002Z" fill="white"/>
<path d="M16.32 29.88H2.72C1.21779 29.88 0 31.0978 0 32.6V46.2C0 47.7022 1.21779 48.92 2.72 48.92H16.32C17.8222 48.92 19.04 47.7022 19.04 46.2V32.6C19.04 31.0978 17.8222 29.88 16.32 29.88Z" fill="white"/>
<path d="M40.8 29.88H27.2C25.6978 29.88 24.48 31.0978 24.48 32.6V46.2C24.48 47.7022 25.6978 48.92 27.2 48.92H40.8C42.3022 48.92 43.52 47.7022 43.52 46.2V32.6C43.52 31.0978 42.3022 29.88 40.8 29.88Z" fill="white"/>
<path d="M16.32 54.36H2.72C1.21779 54.36 0 55.5778 0 57.08V70.68C0 72.1822 1.21779 73.4 2.72 73.4H16.32C17.8222 73.4 19.04 72.1822 19.04 70.68V57.08C19.04 55.5778 17.8222 54.36 16.32 54.36Z" fill="white"/>
<path d="M40.8 54.36H27.2C25.6978 54.36 24.48 55.5778 24.48 57.08V70.68C24.48 72.1822 25.6978 73.4 27.2 73.4H40.8C42.3022 73.4 43.52 72.1822 43.52 70.68V57.08C43.52 55.5778 42.3022 54.36 40.8 54.36Z" fill="white"/>
<path d="M51.68 6.76002C51.68 6.00892 51.0711 5.40002 50.32 5.40002C49.5689 5.40002 48.96 6.00892 48.96 6.76002V72.04C48.96 72.7911 49.5689 73.4 50.32 73.4C51.0711 73.4 51.68 72.7911 51.68 72.04V6.76002Z" fill="white"/>
<path d="M73.44 5.40002H59.84C58.3378 5.40002 57.12 6.61781 57.12 8.12002V21.72C57.12 23.2222 58.3378 24.44 59.84 24.44H73.44C74.9422 24.44 76.16 23.2222 76.16 21.72V8.12002C76.16 6.61781 74.9422 5.40002 73.44 5.40002Z" fill="white"/>
<path d="M97.92 5.40002H84.32C82.8178 5.40002 81.6 6.61781 81.6 8.12002V21.72C81.6 23.2222 82.8178 24.44 84.32 24.44H97.92C99.4222 24.44 100.64 23.2222 100.64 21.72V8.12002C100.64 6.61781 99.4222 5.40002 97.92 5.40002Z" fill="white"/>
<path opacity="0.15" d="M73.44 29.88H59.84C58.3378 29.88 57.12 31.0978 57.12 32.6V46.2C57.12 47.7022 58.3378 48.92 59.84 48.92H73.44C74.9422 48.92 76.16 47.7022 76.16 46.2V32.6C76.16 31.0978 74.9422 29.88 73.44 29.88Z" fill="white"/>
<path d="M97.92 29.88H84.32C82.8178 29.88 81.6 31.0978 81.6 32.6V46.2C81.6 47.7022 82.8178 48.92 84.32 48.92H97.92C99.4222 48.92 100.64 47.7022 100.64 46.2V32.6C100.64 31.0978 99.4222 29.88 97.92 29.88Z" fill="white"/>
<path d="M73.44 54.36H59.84C58.3378 54.36 57.12 55.5778 57.12 57.08V70.68C57.12 72.1822 58.3378 73.4 59.84 73.4H73.44C74.9422 73.4 76.16 72.1822 76.16 70.68V57.08C76.16 55.5778 74.9422 54.36 73.44 54.36Z" fill="white"/>
<path d="M97.92 54.36H84.32C82.8178 54.36 81.6 55.5778 81.6 57.08V70.68C81.6 72.1822 82.8178 73.4 84.32 73.4H97.92C99.4222 73.4 100.64 72.1822 100.64 70.68V57.08C100.64 55.5778 99.4222 54.36 97.92 54.36Z" fill="white"/>
</svg>
