<svg width="457" height="79" viewBox="0 0 457 79" fill="none" xmlns="http://www.w3.org/2000/svg">
<path d="M16.32 5.40002H2.72C1.21779 5.40002 0 6.61781 0 8.12002V21.72C0 23.2222 1.21779 24.44 2.72 24.44H16.32C17.8222 24.44 19.04 23.2222 19.04 21.72V8.12002C19.04 6.61781 17.8222 5.40002 16.32 5.40002Z" fill="black"/>
<path d="M40.8 5.40002H27.2C25.6978 5.40002 24.48 6.61781 24.48 8.12002V21.72C24.48 23.2222 25.6978 24.44 27.2 24.44H40.8C42.3022 24.44 43.52 23.2222 43.52 21.72V8.12002C43.52 6.61781 42.3022 5.40002 40.8 5.40002Z" fill="black"/>
<path d="M16.32 29.88H2.72C1.21779 29.88 0 31.0978 0 32.6V46.2C0 47.7022 1.21779 48.92 2.72 48.92H16.32C17.8222 48.92 19.04 47.7022 19.04 46.2V32.6C19.04 31.0978 17.8222 29.88 16.32 29.88Z" fill="black"/>
<path d="M40.8 29.88H27.2C25.6978 29.88 24.48 31.0978 24.48 32.6V46.2C24.48 47.7022 25.6978 48.92 27.2 48.92H40.8C42.3022 48.92 43.52 47.7022 43.52 46.2V32.6C43.52 31.0978 42.3022 29.88 40.8 29.88Z" fill="black"/>
<path d="M16.32 54.36H2.72C1.21779 54.36 0 55.5778 0 57.08V70.68C0 72.1822 1.21779 73.4 2.72 73.4H16.32C17.8222 73.4 19.04 72.1822 19.04 70.68V57.08C19.04 55.5778 17.8222 54.36 16.32 54.36Z" fill="black"/>
<path d="M40.8 54.36H27.2C25.6978 54.36 24.48 55.5778 24.48 57.08V70.68C24.48 72.1822 25.6978 73.4 27.2 73.4H40.8C42.3022 73.4 43.52 72.1822 43.52 70.68V57.08C43.52 55.5778 42.3022 54.36 40.8 54.36Z" fill="black"/>
<path d="M51.68 6.76002C51.68 6.00892 51.0711 5.40002 50.32 5.40002C49.5689 5.40002 48.96 6.00892 48.96 6.76002V72.04C48.96 72.7911 49.5689 73.4 50.32 73.4C51.0711 73.4 51.68 72.7911 51.68 72.04V6.76002Z" fill="black"/>
<path d="M73.44 5.40002H59.84C58.3378 5.40002 57.12 6.61781 57.12 8.12002V21.72C57.12 23.2222 58.3378 24.44 59.84 24.44H73.44C74.9422 24.44 76.16 23.2222 76.16 21.72V8.12002C76.16 6.61781 74.9422 5.40002 73.44 5.40002Z" fill="black"/>
<path d="M97.92 5.40002H84.32C82.8178 5.40002 81.6 6.61781 81.6 8.12002V21.72C81.6 23.2222 82.8178 24.44 84.32 24.44H97.92C99.4222 24.44 100.64 23.2222 100.64 21.72V8.12002C100.64 6.61781 99.4222 5.40002 97.92 5.40002Z" fill="black"/>
<path opacity="0.15" d="M73.44 29.88H59.84C58.3378 29.88 57.12 31.0978 57.12 32.6V46.2C57.12 47.7022 58.3378 48.92 59.84 48.92H73.44C74.9422 48.92 76.16 47.7022 76.16 46.2V32.6C76.16 31.0978 74.9422 29.88 73.44 29.88Z" fill="black"/>
<path d="M97.92 29.88H84.32C82.8178 29.88 81.6 31.0978 81.6 32.6V46.2C81.6 47.7022 82.8178 48.92 84.32 48.92H97.92C99.4222 48.92 100.64 47.7022 100.64 46.2V32.6C100.64 31.0978 99.4222 29.88 97.92 29.88Z" fill="black"/>
<path d="M73.44 54.36H59.84C58.3378 54.36 57.12 55.5778 57.12 57.08V70.68C57.12 72.1822 58.3378 73.4 59.84 73.4H73.44C74.9422 73.4 76.16 72.1822 76.16 70.68V57.08C76.16 55.5778 74.9422 54.36 73.44 54.36Z" fill="black"/>
<path d="M97.92 54.36H84.32C82.8178 54.36 81.6 55.5778 81.6 57.08V70.68C81.6 72.1822 82.8178 73.4 84.32 73.4H97.92C99.4222 73.4 100.64 72.1822 100.64 70.68V57.08C100.64 55.5778 99.4222 54.36 97.92 54.36Z" fill="black"/>
<path d="M137.368 51.264C133.624 51.264 130.408 50.496 127.72 48.96C125.08 47.376 123.04 45.192 121.6 42.408C120.16 39.576 119.44 36.288 119.44 32.544C119.44 28.8 120.208 25.536 121.744 22.752C123.328 19.92 125.464 17.736 128.152 16.2C130.888 14.616 133.96 13.824 137.368 13.824C141.64 13.824 145.216 14.928 148.096 17.136C150.976 19.344 152.8 22.296 153.568 25.992H147.376C146.896 23.544 145.72 21.696 143.848 20.448C141.976 19.152 139.792 18.504 137.296 18.504C135.28 18.504 133.384 19.032 131.608 20.088C129.832 21.096 128.392 22.632 127.288 24.696C126.184 26.76 125.632 29.376 125.632 32.544C125.632 34.8 125.92 36.792 126.496 38.52C127.12 40.2 127.96 41.616 129.016 42.768C130.072 43.92 131.296 44.784 132.688 45.36C134.128 45.936 135.664 46.224 137.296 46.224C138.976 46.224 140.512 45.96 141.904 45.432C143.296 44.856 144.472 44.04 145.432 42.984C146.392 41.88 147.04 40.584 147.376 39.096H153.568C152.8 42.696 150.976 45.624 148.096 47.88C145.216 50.136 141.64 51.264 137.368 51.264ZM158.278 50.4V14.688H163.606L164.182 22.464H164.47C165.67 19.872 166.846 17.976 167.998 16.776C169.15 15.528 170.47 14.736 171.958 14.4C173.494 14.016 175.39 13.824 177.646 13.824V20.16H176.062C174.142 20.16 172.438 20.424 170.95 20.952C169.462 21.432 168.238 22.152 167.278 23.112C166.318 24.072 165.574 25.296 165.046 26.784C164.566 28.224 164.326 29.928 164.326 31.896V50.4H158.278ZM193.014 51.264C190.182 51.264 187.806 50.76 185.886 49.752C183.966 48.744 182.526 47.4 181.566 45.72C180.654 44.04 180.198 42.216 180.198 40.248C180.198 37.8 180.822 35.736 182.07 34.056C183.366 32.376 185.166 31.104 187.47 30.24C189.822 29.328 192.582 28.872 195.75 28.872H205.398C205.398 26.52 205.038 24.576 204.318 23.04C203.598 21.504 202.566 20.376 201.222 19.656C199.878 18.888 198.27 18.504 196.398 18.504C194.046 18.504 192.006 19.104 190.278 20.304C188.55 21.504 187.494 23.352 187.11 25.848H180.918C181.206 23.256 182.046 21.072 183.438 19.296C184.878 17.52 186.702 16.176 188.91 15.264C191.166 14.304 193.662 13.824 196.398 13.824C199.806 13.824 202.614 14.448 204.822 15.696C207.078 16.896 208.734 18.6 209.79 20.808C210.894 22.968 211.446 25.512 211.446 28.44V50.4H206.406L205.83 44.28H205.542C204.87 45.432 204.078 46.44 203.166 47.304C202.302 48.168 201.342 48.888 200.286 49.464C199.23 50.04 198.078 50.472 196.83 50.76C195.63 51.096 194.358 51.264 193.014 51.264ZM194.094 46.152C195.918 46.152 197.526 45.816 198.918 45.144C200.31 44.424 201.486 43.464 202.446 42.264C203.406 41.064 204.126 39.72 204.606 38.232C205.134 36.696 205.398 35.136 205.398 33.552H196.254C193.902 33.552 192.006 33.84 190.566 34.416C189.126 34.944 188.094 35.688 187.47 36.648C186.846 37.608 186.534 38.712 186.534 39.96C186.534 41.208 186.822 42.312 187.398 43.272C188.022 44.184 188.886 44.904 189.99 45.432C191.142 45.912 192.51 46.152 194.094 46.152ZM220.088 50.4V9.93602C220.088 7.63202 220.472 5.76002 221.24 4.32002C222.008 2.83202 223.136 1.75202 224.624 1.08002C226.16 0.360021 228.032 2.09808e-05 230.24 2.09808e-05H233.84V4.68002H231.176C229.4 4.68002 228.104 5.06402 227.288 5.83202C226.52 6.55202 226.136 7.84802 226.136 9.72002V50.4H220.088ZM214.688 19.008V14.688H234.92V19.008H214.688ZM252.688 50.4C250.528 50.4 248.656 50.064 247.072 49.392C245.488 48.72 244.264 47.592 243.4 46.008C242.584 44.376 242.176 42.192 242.176 39.456V19.008H235.984V14.688H242.176L242.896 6.12002H248.224V14.688H258.736V19.008H248.224V39.456C248.224 41.952 248.68 43.632 249.592 44.496C250.504 45.312 252.112 45.72 254.416 45.72H258.16V50.4H252.688Z" fill="black"/>
<path opacity="0.5" d="M278.288 51.264C274.832 51.264 271.832 50.448 269.288 48.816C266.792 47.136 264.848 44.88 263.456 42.048C262.112 39.216 261.44 36.048 261.44 32.544C261.44 29.04 262.112 25.872 263.456 23.04C264.848 20.208 266.864 17.976 269.504 16.344C272.144 14.664 275.336 13.824 279.08 13.824C282.392 13.824 285.104 14.52 287.216 15.912C289.376 17.304 291.032 18.864 292.184 20.592V2.09808e-05H298.232V50.4H293.192L292.616 43.56H292.328C291.32 45.288 290.072 46.728 288.584 47.88C287.144 48.984 285.56 49.824 283.832 50.4C282.104 50.976 280.256 51.264 278.288 51.264ZM279.728 46.008C282.224 46.008 284.384 45.456 286.208 44.352C288.08 43.2 289.52 41.616 290.528 39.6C291.536 37.584 292.04 35.232 292.04 32.544C292.04 29.856 291.536 27.504 290.528 25.488C289.52 23.472 288.08 21.912 286.208 20.808C284.384 19.656 282.224 19.08 279.728 19.08C277.232 19.08 275.072 19.656 273.248 20.808C271.424 21.912 270.008 23.472 269 25.488C268.04 27.504 267.56 29.856 267.56 32.544C267.56 35.232 268.04 37.584 269 39.6C270.008 41.616 271.424 43.2 273.248 44.352C275.072 45.456 277.232 46.008 279.728 46.008Z" fill="black"/>
<path d="M321.368 51.264C317.624 51.264 314.408 50.496 311.72 48.96C309.08 47.376 307.04 45.192 305.6 42.408C304.16 39.576 303.44 36.288 303.44 32.544C303.44 28.8 304.208 25.536 305.744 22.752C307.328 19.92 309.464 17.736 312.152 16.2C314.888 14.616 317.96 13.824 321.368 13.824C325.64 13.824 329.216 14.928 332.096 17.136C334.976 19.344 336.8 22.296 337.568 25.992H331.376C330.896 23.544 329.72 21.696 327.848 20.448C325.976 19.152 323.792 18.504 321.296 18.504C319.28 18.504 317.384 19.032 315.608 20.088C313.832 21.096 312.392 22.632 311.288 24.696C310.184 26.76 309.632 29.376 309.632 32.544C309.632 34.8 309.92 36.792 310.496 38.52C311.12 40.2 311.96 41.616 313.016 42.768C314.072 43.92 315.296 44.784 316.688 45.36C318.128 45.936 319.664 46.224 321.296 46.224C322.976 46.224 324.512 45.96 325.904 45.432C327.296 44.856 328.472 44.04 329.432 42.984C330.392 41.88 331.04 40.584 331.376 39.096H337.568C336.8 42.696 334.976 45.624 332.096 47.88C329.216 50.136 325.64 51.264 321.368 51.264ZM358.982 51.264C355.622 51.264 352.598 50.496 349.91 48.96C347.222 47.424 345.086 45.264 343.502 42.48C341.966 39.648 341.198 36.336 341.198 32.544C341.198 28.752 341.99 25.464 343.574 22.68C345.158 19.848 347.294 17.664 349.982 16.128C352.718 14.592 355.766 13.824 359.126 13.824C362.486 13.824 365.51 14.592 368.198 16.128C370.886 17.664 372.998 19.848 374.534 22.68C376.118 25.464 376.91 28.752 376.91 32.544C376.91 36.336 376.118 39.648 374.534 42.48C372.95 45.264 370.79 47.424 368.054 48.96C365.366 50.496 362.342 51.264 358.982 51.264ZM358.982 46.584C361.046 46.584 362.966 46.08 364.742 45.072C366.518 44.016 367.958 42.456 369.062 40.392C370.166 38.328 370.718 35.712 370.718 32.544C370.718 29.376 370.166 26.76 369.062 24.696C368.006 22.584 366.59 21.024 364.814 20.016C363.038 19.008 361.142 18.504 359.126 18.504C357.11 18.504 355.19 19.008 353.366 20.016C351.59 21.024 350.15 22.584 349.046 24.696C347.942 26.76 347.39 29.376 347.39 32.544C347.39 35.712 347.942 38.328 349.046 40.392C350.15 42.456 351.566 44.016 353.294 45.072C355.07 46.08 356.966 46.584 358.982 46.584ZM397.351 51.264C393.895 51.264 390.895 50.448 388.351 48.816C385.855 47.136 383.911 44.88 382.519 42.048C381.175 39.216 380.503 36.048 380.503 32.544C380.503 29.04 381.175 25.872 382.519 23.04C383.911 20.208 385.927 17.976 388.567 16.344C391.207 14.664 394.399 13.824 398.143 13.824C401.455 13.824 404.167 14.52 406.279 15.912C408.439 17.304 410.095 18.864 411.247 20.592V2.09808e-05H417.295V50.4H412.255L411.679 43.56H411.391C410.383 45.288 409.135 46.728 407.647 47.88C406.207 48.984 404.623 49.824 402.895 50.4C401.167 50.976 399.319 51.264 397.351 51.264ZM398.791 46.008C401.287 46.008 403.447 45.456 405.271 44.352C407.143 43.2 408.583 41.616 409.591 39.6C410.599 37.584 411.103 35.232 411.103 32.544C411.103 29.856 410.599 27.504 409.591 25.488C408.583 23.472 407.143 21.912 405.271 20.808C403.447 19.656 401.287 19.08 398.791 19.08C396.295 19.08 394.135 19.656 392.311 20.808C390.487 21.912 389.071 23.472 388.063 25.488C387.103 27.504 386.623 29.856 386.623 32.544C386.623 35.232 387.103 37.584 388.063 39.6C389.071 41.616 390.487 43.2 392.311 44.352C394.135 45.456 396.295 46.008 398.791 46.008ZM439.906 51.264C436.498 51.264 433.474 50.496 430.834 48.96C428.194 47.376 426.106 45.192 424.57 42.408C423.082 39.576 422.338 36.288 422.338 32.544C422.338 28.752 423.082 25.464 424.57 22.68C426.058 19.896 428.122 17.736 430.762 16.2C433.45 14.616 436.546 13.824 440.05 13.824C443.554 13.824 446.554 14.616 449.05 16.2C451.546 17.736 453.466 19.776 454.81 22.32C456.154 24.816 456.826 27.552 456.826 30.528C456.826 31.008 456.826 31.536 456.826 32.112C456.826 32.64 456.802 33.24 456.754 33.912H426.874V29.232H450.85C450.706 25.824 449.602 23.184 447.538 21.312C445.522 19.44 442.978 18.504 439.906 18.504C437.842 18.504 435.922 18.96 434.146 19.872C432.37 20.784 430.93 22.152 429.826 23.976C428.77 25.8 428.242 28.104 428.242 30.888V32.904C428.242 35.88 428.794 38.352 429.898 40.32C431.002 42.288 432.442 43.776 434.218 44.784C436.042 45.744 437.938 46.224 439.906 46.224C442.402 46.224 444.49 45.648 446.17 44.496C447.85 43.344 449.074 41.76 449.842 39.744H455.818C455.194 41.952 454.162 43.92 452.722 45.648C451.282 47.376 449.482 48.744 447.322 49.752C445.21 50.76 442.738 51.264 439.906 51.264Z" fill="black"/>
<path opacity="0.7" d="M118.615 78.4V69.3H121.228C122.294 69.3 123.169 69.4864 123.854 69.859C124.547 70.223 125.059 70.7474 125.388 71.432C125.726 72.108 125.895 72.9227 125.895 73.876C125.895 74.812 125.726 75.618 125.388 76.294C125.059 76.97 124.547 77.49 123.854 77.854C123.169 78.218 122.294 78.4 121.228 78.4H118.615ZM119.707 77.49H121.202C122.086 77.49 122.788 77.347 123.308 77.061C123.828 76.7664 124.201 76.3504 124.426 75.813C124.651 75.267 124.764 74.6214 124.764 73.876C124.764 73.1134 124.651 72.459 124.426 71.913C124.201 71.367 123.828 70.9467 123.308 70.652C122.788 70.3574 122.086 70.21 121.202 70.21H119.707V77.49ZM128.139 78.4V69.3H133.768V70.197H129.231V73.369H133.378V74.253H129.231V77.503H133.768V78.4H128.139ZM139.064 78.556C138.397 78.556 137.816 78.4347 137.322 78.192C136.828 77.9494 136.447 77.6114 136.178 77.178C135.91 76.7447 135.775 76.242 135.775 75.67H136.919C136.919 76.0254 137.002 76.3547 137.166 76.658C137.331 76.9527 137.569 77.191 137.881 77.373C138.202 77.5464 138.596 77.633 139.064 77.633C139.472 77.633 139.818 77.568 140.104 77.438C140.399 77.2994 140.62 77.113 140.767 76.879C140.923 76.645 141.001 76.3807 141.001 76.086C141.001 75.7394 140.923 75.4577 140.767 75.241C140.62 75.0157 140.416 74.8337 140.156 74.695C139.896 74.5477 139.597 74.422 139.259 74.318C138.921 74.2054 138.566 74.0884 138.193 73.967C137.465 73.7244 136.932 73.421 136.594 73.057C136.256 72.693 136.087 72.2207 136.087 71.64C136.087 71.146 136.2 70.7127 136.425 70.34C136.659 69.9674 136.989 69.677 137.413 69.469C137.847 69.2524 138.358 69.144 138.947 69.144C139.528 69.144 140.031 69.2524 140.455 69.469C140.889 69.6857 141.227 69.9847 141.469 70.366C141.712 70.7387 141.833 71.172 141.833 71.666H140.689C140.689 71.4147 140.624 71.1677 140.494 70.925C140.364 70.6824 140.165 70.483 139.896 70.327C139.636 70.1624 139.307 70.08 138.908 70.08C138.579 70.0714 138.284 70.1277 138.024 70.249C137.773 70.3617 137.574 70.5264 137.426 70.743C137.288 70.9597 137.218 71.224 137.218 71.536C137.218 71.8307 137.279 72.069 137.4 72.251C137.53 72.433 137.712 72.589 137.946 72.719C138.189 72.8404 138.471 72.953 138.791 73.057C139.112 73.161 139.467 73.278 139.857 73.408C140.299 73.5554 140.689 73.7374 141.027 73.954C141.374 74.162 141.643 74.4307 141.833 74.76C142.033 75.0894 142.132 75.5097 142.132 76.021C142.132 76.4544 142.015 76.866 141.781 77.256C141.556 77.6374 141.218 77.9494 140.767 78.192C140.317 78.4347 139.749 78.556 139.064 78.556ZM144.356 78.4V69.3H145.448V78.4H144.356ZM151.966 78.556C151.117 78.556 150.371 78.361 149.73 77.971C149.089 77.5724 148.59 77.022 148.235 76.32C147.88 75.618 147.702 74.799 147.702 73.863C147.702 72.9357 147.88 72.1167 148.235 71.406C148.599 70.6954 149.11 70.1407 149.769 69.742C150.436 69.3434 151.221 69.144 152.122 69.144C153.145 69.144 153.998 69.391 154.683 69.885C155.368 70.3704 155.805 71.0507 155.996 71.926H154.735C154.614 71.38 154.328 70.9467 153.877 70.626C153.426 70.3054 152.841 70.145 152.122 70.145C151.455 70.145 150.87 70.2967 150.367 70.6C149.873 70.8947 149.492 71.3194 149.223 71.874C148.954 72.4287 148.82 73.0917 148.82 73.863C148.82 74.6344 148.954 75.3017 149.223 75.865C149.492 76.4197 149.864 76.8444 150.341 77.139C150.826 77.4337 151.381 77.581 152.005 77.581C152.976 77.581 153.708 77.295 154.202 76.723C154.696 76.151 154.978 75.3754 155.047 74.396H152.421V73.538H156.165V78.4H155.164L155.073 76.905C154.856 77.2604 154.605 77.5637 154.319 77.815C154.042 78.0577 153.712 78.244 153.331 78.374C152.95 78.4954 152.495 78.556 151.966 78.556ZM158.567 78.4V69.3H159.659L164.508 76.593V69.3H165.6V78.4H164.508L159.659 71.107V78.4H158.567ZM172.646 74.695C172.438 74.695 172.261 74.6257 172.113 74.487C171.975 74.3397 171.905 74.162 171.905 73.954C171.905 73.7374 171.975 73.5597 172.113 73.421C172.261 73.2824 172.438 73.213 172.646 73.213C172.872 73.213 173.049 73.2824 173.179 73.421C173.318 73.5597 173.387 73.7374 173.387 73.954C173.387 74.162 173.318 74.3397 173.179 74.487C173.049 74.6257 172.872 74.695 172.646 74.695ZM179.69 78.4V69.3H182.303C183.369 69.3 184.244 69.4864 184.929 69.859C185.622 70.223 186.133 70.7474 186.463 71.432C186.801 72.108 186.97 72.9227 186.97 73.876C186.97 74.812 186.801 75.618 186.463 76.294C186.133 76.97 185.622 77.49 184.929 77.854C184.244 78.218 183.369 78.4 182.303 78.4H179.69ZM180.782 77.49H182.277C183.161 77.49 183.863 77.347 184.383 77.061C184.903 76.7664 185.275 76.3504 185.501 75.813C185.726 75.267 185.839 74.6214 185.839 73.876C185.839 73.1134 185.726 72.459 185.501 71.913C185.275 71.367 184.903 70.9467 184.383 70.652C183.863 70.3574 183.161 70.21 182.277 70.21H180.782V77.49ZM189.214 78.4V69.3H194.843V70.197H190.306V73.369H194.453V74.253H190.306V77.503H194.843V78.4H189.214ZM199.957 78.4L196.538 69.3H197.721L200.594 77.243L203.493 69.3H204.65L201.231 78.4H199.957ZM206.573 78.4V69.3H212.202V70.197H207.665V73.369H211.812V74.253H207.665V77.503H212.202V78.4H206.573ZM214.586 78.4V69.3H215.678V77.529H219.916V78.4H214.586ZM225.258 78.556C224.392 78.556 223.629 78.361 222.97 77.971C222.32 77.5724 221.809 77.022 221.436 76.32C221.072 75.6094 220.89 74.786 220.89 73.85C220.89 72.9227 221.072 72.108 221.436 71.406C221.809 70.6954 222.32 70.1407 222.97 69.742C223.629 69.3434 224.392 69.144 225.258 69.144C226.142 69.144 226.909 69.3434 227.559 69.742C228.218 70.1407 228.729 70.6954 229.093 71.406C229.457 72.108 229.639 72.9227 229.639 73.85C229.639 74.786 229.457 75.6094 229.093 76.32C228.729 77.022 228.218 77.5724 227.559 77.971C226.909 78.361 226.142 78.556 225.258 78.556ZM225.258 77.594C225.908 77.594 226.48 77.4467 226.974 77.152C227.468 76.8487 227.85 76.4197 228.118 75.865C228.387 75.3017 228.521 74.63 228.521 73.85C228.521 73.07 228.387 72.4027 228.118 71.848C227.85 71.2847 227.468 70.8557 226.974 70.561C226.48 70.2664 225.908 70.119 225.258 70.119C224.617 70.119 224.049 70.2664 223.555 70.561C223.07 70.8557 222.689 71.2847 222.411 71.848C222.143 72.4027 222.008 73.07 222.008 73.85C222.008 74.63 222.143 75.3017 222.411 75.865C222.689 76.4197 223.07 76.8487 223.555 77.152C224.049 77.4467 224.617 77.594 225.258 77.594ZM231.883 78.4V69.3H234.847C235.566 69.3 236.155 69.4214 236.615 69.664C237.083 69.898 237.425 70.2187 237.642 70.626C237.867 71.0247 237.98 71.4797 237.98 71.991C237.98 72.4937 237.867 72.9487 237.642 73.356C237.425 73.7547 237.087 74.0754 236.628 74.318C236.168 74.5607 235.575 74.682 234.847 74.682H232.975V78.4H231.883ZM232.975 73.759H234.834C235.57 73.759 236.09 73.5987 236.394 73.278C236.706 72.9574 236.862 72.5284 236.862 71.991C236.862 71.4277 236.706 70.99 236.394 70.678C236.09 70.366 235.57 70.21 234.834 70.21H232.975V73.759ZM244.527 74.695C244.319 74.695 244.141 74.6257 243.994 74.487C243.855 74.3397 243.786 74.162 243.786 73.954C243.786 73.7374 243.855 73.5597 243.994 73.421C244.141 73.2824 244.319 73.213 244.527 73.213C244.752 73.213 244.93 73.2824 245.06 73.421C245.199 73.5597 245.268 73.7374 245.268 73.954C245.268 74.162 245.199 74.3397 245.06 74.487C244.93 74.6257 244.752 74.695 244.527 74.695ZM251.57 78.4V69.3H254.183C255.249 69.3 256.125 69.4864 256.809 69.859C257.503 70.223 258.014 70.7474 258.343 71.432C258.681 72.108 258.85 72.9227 258.85 73.876C258.85 74.812 258.681 75.618 258.343 76.294C258.014 76.97 257.503 77.49 256.809 77.854C256.125 78.218 255.249 78.4 254.183 78.4H251.57ZM252.662 77.49H254.157C255.041 77.49 255.743 77.347 256.263 77.061C256.783 76.7664 257.156 76.3504 257.381 75.813C257.607 75.267 257.719 74.6214 257.719 73.876C257.719 73.1134 257.607 72.459 257.381 71.913C257.156 71.367 256.783 70.9467 256.263 70.652C255.743 70.3574 255.041 70.21 254.157 70.21H252.662V77.49ZM261.095 78.4V69.3H266.724V70.197H262.187V73.369H266.334V74.253H262.187V77.503H266.724V78.4H261.095ZM269.108 78.4V69.3H270.2V77.529H274.438V78.4H269.108ZM276.613 78.4V69.3H277.705V78.4H276.613ZM283.04 78.4L279.621 69.3H280.804L283.677 77.243L286.576 69.3H287.733L284.314 78.4H283.04ZM289.656 78.4V69.3H295.285V70.197H290.748V73.369H294.895V74.253H290.748V77.503H295.285V78.4H289.656ZM297.67 78.4V69.3H300.608C301.318 69.3 301.899 69.4214 302.35 69.664C302.8 69.898 303.134 70.2144 303.351 70.613C303.567 71.0117 303.676 71.4624 303.676 71.965C303.676 72.4504 303.563 72.8967 303.338 73.304C303.121 73.7114 302.783 74.0364 302.324 74.279C301.864 74.5217 301.275 74.643 300.556 74.643H298.762V78.4H297.67ZM302.48 78.4L300.478 74.331H301.7L303.767 78.4H302.48ZM298.762 73.785H300.53C301.223 73.785 301.73 73.616 302.051 73.278C302.38 72.94 302.545 72.5067 302.545 71.978C302.545 71.4407 302.384 71.016 302.064 70.704C301.752 70.3834 301.236 70.223 300.517 70.223H298.762V73.785Z" fill="black"/>
</svg>
